Daryl Hall John Oates live At The Troubadour Mkv 1080p Dolby Digital 5.1 640 kpbs


Track list

1. Everything Your Heart Desires
2. When the Morning Comes
3. Family Man
4. Say It IsnΓÇÖt So
5. ItΓÇÖs Uncanny
6. Had I Known You Better Then
7. SheΓÇÖs Gone
8. Getaway Car
9. Cab Driver
10. One on One
11. Sara Smile
12. Maneater
13. Out of Touch
14. I CanΓÇÖt Go for That (No Can Do)
15. Rich Girl
16. Kiss on My List
17. You Make My Dreams
18. Abandoned Luncheonette
19. Private Eyes 


General 
Unique ID : 196004640612945976063812213566549208372 (0x93751EE38B0CB2C1888C115860872D34) 
Daryl Hall John Oates live At The Troubadour.mkv 
Format : Matroska 
Format version : Version 2 
File size : 4.14 GiB 
Duration : 1h 54mn 
Overall bit rate mode : Variable 
Overall bit rate : 5 173 Kbps 
Movie name : Daryl Hall John Oates live At The Troubadour 
Encoded date : UTC 2012-11-17 15:09:00 
Writing application : mkvmerge v5.7.0 ('The Whirlwind') built on Jul 8 2012 20:08:51 
Writing library : libebml v1.2.3 + libmatroska v1.3.0 

Video 
ID : 1 
Format : AVC 
Format/Info : Advanced Video Codec 
Format profile : High@L4.0 
Format settings, CABAC : Yes 
Format settings, ReFrames : 3 frames 
Codec ID : V_MPEG4/ISO/AVC 
Duration : 1h 54mn 
Bit rate mode : Variable 
Bit rate : 4 430 Kbps 
Maximum bit rate : 25.0 Mbps 
Width : 1 920 pixels 
Height : 1 080 pixels 
Display aspect ratio : 16:9 
Frame rate mode : Constant 
Frame rate : 29.970 fps 
Color space : YUV 
Chroma subsampling : 4:2:0 
Bit depth : 8 bits 
Scan type : Progressive 
Bits/(Pixel*Frame) : 0.071 
Stream size : 3.55 GiB (86%) 
Writing library : x264 core 125 r2208 d9d2288 
Encoding settings : cabac=1 / ref=3 / deblock=1:0:0 / analyse=0x3:0x113 / me=hex / subme=7 / psy=1 / psy_rd=1.00:0.00 / mixed_ref=1 / me_range=16 / chroma_me=1 / trellis=1 / 8x8dct=1 / cqm=0 / deadzone=21,11 / fast_pskip=1 / chroma_qp_offset=-2 / threads=12 / lookahead_threads=2 / sliced_threads=0 / nr=0 / decimate=1 / interlaced=0 / bluray_compat=0 / constrained_intra=0 / bframes=3 / b_pyramid=0 / b_adapt=1 / b_bias=0 / direct=1 / weightb=1 / open_gop=0 / weightp=2 / keyint=300 / keyint_min=30 / scenecut=40 / intra_refresh=0 / rc_lookahead=40 / rc=crf / mbtree=1 / crf=24.0 / qcomp=0.60 / qpmin=0 / qpmax=69 / qpstep=4 / vbv_maxrate=25000 / vbv_bufsize=25000 / crf_max=0.0 / nal_hrd=vbr / ip_ratio=1.40 / aq=1:1.00 
Default : Yes 
Forced : No 

Audio 
ID : 2 
Format : AC-3 
Format/Info : Audio Coding 3 
Mode extension : CM (complete main) 
Format settings, Endianness : Big 
Codec ID : A_AC3 
Duration : 1h 54mn 
Bit rate mode : Constant 
Bit rate : 640 Kbps 
Channel(s) : 6 channels 
Channel positions : Front: L C R, Side: L R, LFE 
Sampling rate : 48.0 KHz 
Bit depth : 16 bits 
Compression mode : Lossy 
Stream size : 525 MiB (12%) 
Language : English 
Default : Yes 
Forced : No 

Menu 
00:00:00.000 : en:Chapter 00 
00:01:42.969 : en:Chapter 01 
00:07:30.016 : en:Chapter 02 
00:11:48.107 : en:Chapter 03 
00:16:07.866 : en:Chapter 04 
00:22:28.447 : en:Chapter 05 
00:28:13.458 : en:Chapter 06 
00:32:49.434 : en:Chapter 07 
00:38:29.340 : en:Chapter 08 
00:47:52.703 : en:Chapter 09 
00:57:09.659 : en:Chapter 10 
01:04:57.593 : en:Chapter 11 
01:10:23.052 : en:Chapter 12 
01:15:23.652 : en:Chapter 13 
01:20:20.182 : en:Chapter 14 
01:30:59.487 : en:Chapter 15 
01:34:52.887 : en:Chapter 16 
01:39:29.029 : en:Chapter 17 
01:43:54.528 : en:Chapter 18 
01:50:04.898 : en:Chapter 19 
